<svg xmlns="http://www.w3.org/2000/svg" width="1200" height="720" viewBox="0 0 1200 720" role="img" aria-label="LabFlow people screen">
  <rect width="1200" height="720" fill="#f7f1e8"/>
  <rect x="64" y="54" width="1072" height="612" rx="18" fill="#fffdfa" stroke="#d9cdbc"/>
  <text x="100" y="112" fill="#111" font-family="-apple-system,BlinkMacSystemFont,Helvetica,Arial" font-size="34" font-weight="800">People</text>
  <text x="100" y="145" fill="#69645c" font-family="-apple-system,BlinkMacSystemFont,Helvetica,Arial" font-size="17">See each member's responsibilities and add tasks from their profile.</text>
  <rect x="100" y="188" width="330" height="416" rx="14" fill="#fbf7ef" stroke="#d9cdbc"/>
  <g font-family="-apple-system,BlinkMacSystemFont,Helvetica,Arial">
    <text x="128" y="232" fill="#69645c" font-size="14" font-weight="800">RAP</text>
    <rect x="128" y="252" width="250" height="52" rx="10" fill="#fff" stroke="#e4d9ca"/>
    <text x="148" y="284" fill="#111" font-size="16" font-weight="720">Yixin ZHANG</text>
    <rect x="128" y="316" width="250" height="52" rx="10" fill="#fff" stroke="#e4d9ca"/>
    <text x="148" y="348" fill="#111" font-size="16" font-weight="720">Navid</text>
    <text x="128" y="408" fill="#69645c" font-size="14" font-weight="800">Post-doc</text>
    <rect x="128" y="428" width="250" height="52" rx="10" fill="#111"/>
    <text x="148" y="460" fill="#fffdfa" font-size="16" font-weight="720">Skye Xi CHEN</text>
    <text x="128" y="530" fill="#69645c" font-size="14">Right-click a role or person to add/delete members.</text>
  </g>
  <rect x="468" y="188" width="608" height="416" rx="14" fill="#fff" stroke="#d9cdbc"/>
  <text x="500" y="236" fill="#111" font-family="-apple-system,BlinkMacSystemFont,Helvetica,Arial" font-size="26" font-weight="780">Skye Xi CHEN</text>
  <text x="500" y="265" fill="#69645c" font-family="-apple-system,BlinkMacSystemFont,Helvetica,Arial" font-size="16">Post-doc · open tasks</text>
  <rect x="500" y="304" width="514" height="56" rx="10" fill="#fbf7ef" stroke="#d9cdbc"/>
  <text x="524" y="339" fill="#69645c" font-family="-apple-system,BlinkMacSystemFont,Helvetica,Arial" font-size="15">New task for this member  |  Project  |  Priority  |  Due  |  Add</text>
  <rect x="500" y="394" width="514" height="62" rx="10" fill="#fbf7ef" stroke="#e4d9ca"/>
  <text x="524" y="430" fill="#111" font-family="-apple-system,BlinkMacSystemFont,Helvetica,Arial" font-size="16" font-weight="720">Complex emotion English stories</text>
  <rect x="500" y="474" width="514" height="62" rx="10" fill="#fbf7ef" stroke="#e4d9ca"/>
  <text x="524" y="510" fill="#111" font-family="-apple-system,BlinkMacSystemFont,Helvetica,Arial" font-size="16" font-weight="720">Robot pretended-play feature with Navid</text>
</svg>
